<?xml version="1.0" encoding="UTF-8"?>
<svg version="1.1" xmlns="http://www.w3.org/2000/svg" width="1024" height="1024">
<path d="M0 0 C0.98033203 -0.01224609 1.96066406 -0.02449219 2.97070312 -0.03710938 C3.90720703 -0.03904297 4.84371094 -0.04097656 5.80859375 -0.04296875 C7.10301392 -0.04913208 7.10301392 -0.04913208 8.42358398 -0.05541992 C10.5625 0.1875 10.5625 0.1875 12.5625 2.1875 C11.9025 2.1875 11.2425 2.1875 10.5625 2.1875 C10.62396965 2.98506021 10.6854393 3.78262043 10.74877167 4.60434914 C11.6422875 16.98299732 12.05664488 29.37287696 12.48632812 41.77490234 C12.57332266 44.23586215 12.66052217 46.69681473 12.74790955 49.15776062 C12.95910479 55.12042031 13.16814034 61.08315209 13.3761605 67.0459231 C13.61978593 74.02637494 13.86597538 81.00673569 14.11226016 87.98709412 C14.55282012 100.47603001 14.99116966 112.96504249 15.42822266 125.45410156 C15.84956679 137.49419396 16.27232971 149.53423535 16.69677734 161.57421875 C16.72283218 162.31330347 16.74888701 163.05238818 16.77573138 163.8138694 C16.82824322 165.30342134 16.88075508 166.79297328 16.93326697 168.28252522 C16.95918879 169.01783367 16.9851106 169.75314212 17.01181793 170.51073265 C17.03768649 171.24451862 17.06355504 171.97830459 17.09020749 172.7343265 C17.49801523 184.30373358 17.90457689 195.87318449 18.31098774 207.44264071 C18.45679112 211.59297218 18.60274435 215.74329833 18.74884042 219.8936195 C18.82012542 221.9192397 18.89133586 223.9448625 18.96253252 225.97048581 C19.05524406 228.6064994 19.14816022 231.2425058 19.24129057 233.87850463 C19.46028442 240.09603763 19.67428883 246.31365218 19.8759079 252.53177452 C20.3260237 266.47149811 20.3260237 266.47149811 21.00937223 280.40118587 C21.1906959 283.54190867 21.34932226 286.68357855 21.50622654 289.82560277 C21.61794979 291.83648143 21.76820508 293.84510814 21.92028046 295.85333824 C22.32040065 304.03410319 22.32040065 304.03410319 20.09641647 307.41863155 C17.06896482 310.40305609 13.92108183 312.53873068 9.890625 313.95703125 C3.72812226 316.40377137 -1.57583618 319.90704524 -7.125 323.5 C-9.1917899 324.79261972 -11.26081248 326.0816763 -13.33203125 327.3671875 C-19.01656851 330.91542886 -24.66766433 334.51405631 -30.3125 338.125 C-39.46504405 343.97421397 -48.70140408 349.67978316 -57.96069336 355.3581543 C-66.73056187 360.74015504 -75.44223586 366.20756689 -84.12695312 371.72558594 C-86.59472059 373.28697558 -89.06999132 374.83592854 -91.546875 376.3828125 C-92.39644775 376.91487305 -93.24602051 377.44693359 -94.12133789 377.99511719 C-95.72820929 379.00107666 -97.33663944 380.00455297 -98.94702148 381.00488281 C-101.12836813 382.37358971 -103.28664071 383.77143093 -105.4375 385.1875 C-106.1588916 385.6505957 -106.8802832 386.11369141 -107.62353516 386.59082031 C-112.59561979 389.99585449 -115.72925527 393.31744468 -117.4375 399.1875 C-117.92657296 402.56698726 -117.95463973 405.8409058 -117.875 409.25 C-117.88208984 410.10916016 -117.88917969 410.96832031 -117.89648438 411.85351562 C-117.83523014 418.02134611 -117.19374109 423.2085868 -112.81469727 427.94140625 C-107.7797575 432.5633957 -102.10781209 436.16539964 -96.3125 439.75 C-94.35144636 440.98028365 -92.3905122 442.21075776 -90.4296875 443.44140625 C-89.43420898 444.06289551 -88.43873047 444.68438477 -87.41308594 445.32470703 C-81.82988115 448.81993615 -76.28219433 452.37108263 -70.73046875 455.91601562 C-65.93816399 458.9722272 -61.13276282 462.00446255 -56.3046875 465.00390625 C-54.80035156 465.94459961 -54.80035156 465.94459961 -53.265625 466.90429688 C-51.34566747 468.10427033 -49.42139436 469.29737583 -47.4921875 470.48242188 C-46.6259375 471.02576172 -45.7596875 471.56910156 -44.8671875 472.12890625 C-44.10647949 472.60013916 -43.34577148 473.07137207 -42.56201172 473.55688477 C-39.24009111 476.1065409 -36.78240109 478.13165794 -36.05844116 482.44694519 C-35.87757737 485.29003329 -35.83161729 488.10819184 -35.828125 490.95703125 C-35.81158875 491.99317062 -35.79505249 493.02931 -35.77801514 494.09684753 C-35.72952911 497.39795863 -35.70816222 500.69860899 -35.6875 504 C-35.65934092 506.24155964 -35.62941359 508.48309782 -35.59765625 510.72460938 C-35.52377014 516.21215593 -35.47213109 521.69957288 -35.4375 527.1875 C-39.24426298 527.76761657 -42.95885423 528.31385284 -46.8125 528.3203125 C-47.57046875 528.32160156 -48.3284375 528.32289063 -49.109375 528.32421875 C-49.87765625 528.32035156 -50.6459375 528.31648437 -51.4375 528.3125 C-52.20578125 528.31636719 -52.9740625 528.32023438 -53.765625 528.32421875 C-58.41627845 528.31630948 -62.87399022 528.12634707 -67.4375 527.1875 C-68.86526399 524.33197202 -68.5130144 521.93421285 -68.46484375 518.74609375 C-68.45259766 517.43962891 -68.44035156 516.13316406 -68.42773438 514.78710938 C-68.40310408 512.71596969 -68.37532592 510.6449861 -68.34155273 508.57397461 C-67.66978191 493.53140796 -67.66978191 493.53140796 -74.55029297 480.84082031 C-78.23371378 477.6138959 -82.32679094 475.10316053 -86.5 472.5625 C-87.46156006 471.96421387 -88.42312012 471.36592773 -89.41381836 470.74951172 C-92.41533919 468.88497883 -95.4262217 467.03622099 -98.4375 465.1875 C-100.32374053 464.01695155 -102.2091805 462.8451119 -104.09375 461.671875 C-108.43060542 458.97460973 -112.77496909 456.28984874 -117.12402344 453.61230469 C-119.27419681 452.28807381 -121.42260674 450.96104053 -123.5703125 449.6328125 C-133.23328652 443.40486274 -133.23328652 443.40486274 -144.4375 443.1875 C-149.42029628 445.33503329 -153.88762409 448.26074533 -158.4375 451.1875 C-160.12054961 452.25216276 -161.80417906 453.31590926 -163.48828125 454.37890625 C-167.22408443 456.74302426 -170.94634925 459.1270918 -174.6640625 461.51953125 C-178.49854313 463.97581231 -182.36420911 466.36379292 -186.2734375 468.69921875 C-187.21372803 469.26487549 -188.15401855 469.83053223 -189.12280273 470.41333008 C-190.89941274 471.47790921 -192.68240155 472.53194774 -194.47290039 473.57299805 C-201.08783483 477.55613497 -206.92493208 481.96722917 -209.60083008 489.43334961 C-210.49088285 493.42702966 -210.7851053 497.2376992 -210.8515625 501.30859375 C-210.87092865 502.05335464 -210.8902948 502.79811554 -210.9102478 503.56544495 C-210.96950156 505.91851749 -211.01620914 508.27164043 -211.0625 510.625 C-211.10072985 512.23113983 -211.13978442 513.83726025 -211.1796875 515.44335938 C-211.27669375 519.35796558 -211.35668844 523.27239281 -211.4375 527.1875 C-221.6675 527.1875 -231.8975 527.1875 -242.4375 527.1875 C-243.134945 523.700275 -243.560255 521.25680638 -243.52270508 517.84375 C-243.51551956 517.01939453 -243.50833405 516.19503906 -243.50093079 515.34570312 C-243.48644394 514.46849609 -243.47195709 513.59128906 -243.45703125 512.6875 C-243.4358448 511.31754883 -243.4358448 511.31754883 -243.41423035 509.91992188 C-243.38119698 507.99343136 -243.34485514 506.0669951 -243.30541992 504.140625 C-243.2501949 501.19788563 -243.22163954 498.25560494 -243.19335938 495.3125 C-243.15790414 493.43746799 -243.12084838 491.56246542 -243.08203125 489.6875 C-243.07766556 488.81029297 -243.07329987 487.93308594 -243.06880188 487.02929688 C-242.95905072 483.08644385 -242.77513049 480.75212066 -240.71948242 477.31445312 C-238.35080262 475.10669251 -236.02786263 473.37116011 -233.28125 471.65625 C-232.26909424 471.0173584 -231.25693848 470.3784668 -230.21411133 469.72021484 C-229.13282959 469.04941895 -228.05154785 468.37862305 -226.9375 467.6875 C-225.80495437 466.97577097 -224.67304421 466.2630298 -223.54174805 465.54931641 C-221.82182089 464.46448092 -220.10150523 463.38032532 -218.3790741 462.29946899 C-213.29821144 459.11084968 -208.26880403 455.8475818 -203.25 452.5625 C-198.01612522 449.1440336 -192.76658499 445.75357437 -187.484375 442.41015625 C-186.48688232 441.77867676 -185.48938965 441.14719727 -184.46166992 440.49658203 C-182.53647287 439.27998319 -180.6096386 438.06596994 -178.6809082 436.85498047 C-168.59561552 430.84540543 -168.59561552 430.84540543 -162.4375 421.1875 C-161.85537697 417.1940343 -161.83294356 413.27999641 -161.875 409.25 C-161.85115234 408.20392578 -161.82730469 407.15785156 -161.80273438 406.08007812 C-161.8156217 399.24550134 -162.62431636 394.24876371 -167.4375 389.1875 C-170.21427048 386.92324542 -173.15649444 385.11145424 -176.25 383.3125 C-177.09240234 382.80203125 -177.93480469 382.2915625 -178.80273438 381.765625 C-180.52406563 380.7227084 -182.24948474 379.68650776 -183.97900391 378.65722656 C-187.49854753 376.55318956 -190.96721938 374.37144442 -194.4375 372.1875 C-195.74327231 371.37204781 -197.04926493 370.5569483 -198.35546875 369.7421875 C-202.82902598 366.94607781 -207.29026294 364.13058543 -211.75 361.3125 C-212.54680176 360.80904053 -213.34360352 360.30558105 -214.16455078 359.78686523 C-218.15413286 357.26516342 -222.14226365 354.74118991 -226.12890625 352.21484375 C-234.30838706 347.03518923 -242.51008873 341.89554223 -250.75 336.8125 C-258.09451823 332.27890566 -265.40596415 327.69661206 -272.6875 323.0625 C-273.51290283 322.53736816 -274.33830566 322.01223633 -275.1887207 321.47119141 C-276.86649181 320.40089757 -278.52967845 319.30739475 -280.1774292 318.19143677 C-282.69649782 316.6429875 -285.00511719 315.45669371 -287.68370056 314.26593018 C-299.07231565 308.77944829 -299.07231565 308.77944829 -301.33433151 302.8278389 C-302.63355546 295.65712838 -301.88345564 288.39907887 -301.36328125 281.1796875 C-301.25249067 278.74515626 -301.14962071 276.31025356 -301.05407715 273.87507629 C-300.83287612 268.65710524 -300.55988002 263.44468181 -300.23867798 258.23202515 C-299.77547883 250.70530466 -299.40953534 243.17634347 -299.07108724 235.64308965 C-298.65688087 226.43428806 -298.22531631 217.22659036 -297.74214172 208.02113342 C-297.70473725 207.30796862 -297.66733279 206.59480382 -297.62879485 205.86002797 C-297.59136981 205.14650428 -297.55394476 204.43298059 -297.51538563 203.69783497 C-296.56693651 185.60202944 -295.84701392 167.50511192 -295.25 149.39453125 C-295.20680319 148.09197388 -295.16360638 146.7894165 -295.11910057 145.4473877 C-294.90785832 139.06064605 -294.69955778 132.67381342 -294.49276733 126.28692627 C-294.14437516 115.57967554 -293.76991981 104.87337688 -293.38465881 94.16739464 C-293.27368275 91.0652663 -293.16584655 87.96304037 -293.05822754 84.86079407 C-292.7063941 74.95016168 -292.25286916 65.07284167 -291.4375 55.1875 C-287.95834023 55.15980258 -284.47923538 55.14074315 -281 55.125 C-279.51016602 55.11243164 -279.51016602 55.11243164 -277.99023438 55.09960938 C-277.04599609 55.09638672 -276.10175781 55.09316406 -275.12890625 55.08984375 C-274.25435791 55.08460693 -273.37980957 55.07937012 -272.47875977 55.07397461 C-270.4375 55.1875 -270.4375 55.1875 -269.4375 56.1875 C-269.38942082 57.76604237 -269.41403959 59.34684257 -269.46690369 60.92523193 C-269.49885519 61.95210365 -269.53080669 62.97897537 -269.56372643 64.03696442 C-269.60449114 65.17428764 -269.64525585 66.31161087 -269.68725586 67.48339844 C-269.72603662 68.67413719 -269.76481739 69.86487595 -269.80477333 71.09169769 C-269.91333527 74.38388263 -270.02669087 77.67583585 -270.14236188 80.96777439 C-270.23965235 83.75849535 -270.33320096 86.54933697 -270.42682284 89.34018302 C-271.57498082 123.52385835 -272.91565846 157.70078175 -274.25165689 191.87752497 C-274.36349931 194.73997459 -274.47509352 197.60243385 -274.5866158 200.46489596 C-274.6420484 201.88665277 -274.69757588 203.30840588 -274.75319934 204.73015523 C-275.05008565 212.32349458 -275.33861695 219.91695747 -275.60122681 227.51156616 C-275.69255723 230.13580636 -275.78397618 232.76004348 -275.87548828 235.38427734 C-275.91936991 236.64950918 -275.96325153 237.91474102 -276.00846291 239.21831322 C-276.2602034 246.19447937 -276.58723332 253.15957697 -277.01292133 260.12728119 C-277.2484644 264.05921531 -277.44353392 267.99254003 -277.63166618 271.92699432 C-277.72699002 273.68731707 -277.84224963 275.44670138 -277.97976875 277.20423126 C-278.85509632 286.76349749 -278.85509632 286.76349749 -275.1802063 295.35458374 C-269.85371815 300.33281043 -264.19286904 303.53235773 -257.359375 306.02294922 C-253.81766586 307.43454285 -250.73446693 309.27214492 -247.4375 311.1875 C-247.53979919 309.24133789 -247.53979919 309.24133789 -247.64416504 307.25585938 C-249.02809016 278.95421737 -248.80860229 250.59290886 -248.88231659 222.26431274 C-248.91002913 211.78313195 -248.96126831 201.30261632 -249.04279089 190.82171249 C-249.0985677 183.3969681 -249.12754615 175.97240513 -249.1367898 168.54745865 C-249.14302877 164.13180195 -249.16099789 159.71693872 -249.20817566 155.30151367 C-249.25187148 151.1641151 -249.26232257 147.02794434 -249.24754715 142.89035416 C-249.24787515 141.37783768 -249.26010111 139.86526747 -249.28539658 138.35296249 C-249.48841138 125.53727009 -249.48841138 125.53727009 -245.12937927 120.47572327 C-243.92649221 119.34927609 -242.69872526 118.24822211 -241.4375 117.1875 C-240.73899429 116.44708969 -240.04048859 115.70667938 -239.32081604 114.9438324 C-238.73871872 114.36093948 -238.1566214 113.77804657 -237.55688477 113.17749023 C-236.8825087 112.49996201 -236.20813263 111.82243378 -235.51332092 111.12437439 C-234.45678566 110.07087547 -234.45678566 110.07087547 -233.37890625 108.99609375 C-232.6309227 108.24715347 -231.88293915 107.4982132 -231.11228943 106.72657776 C-229.54117536 105.15478775 -227.96881608 103.58424151 -226.39526367 102.01489258 C-224.00650154 99.63148696 -221.62312554 97.24278932 -219.24023438 94.85351562 C-217.7034455 93.31738763 -216.1663464 91.78156991 -214.62890625 90.24609375 C-213.92657364 89.54173691 -213.22424103 88.83738007 -212.50062561 88.11167908 C-208.53154542 84.16106481 -204.4557665 80.4028427 -200.21653748 76.74415588 C-198.0034744 74.80772807 -195.92089898 72.76822529 -193.859375 70.671875 C-192.70695312 69.50785156 -192.70695312 69.50785156 -191.53125 68.3203125 C-190.37109375 67.14082031 -190.37109375 67.14082031 -189.1875 65.9375 C-187.62218099 64.34660388 -186.05455731 62.75797132 -184.484375 61.171875 C-183.80213867 60.47803711 -183.11990234 59.78419922 -182.41699219 59.06933594 C-180.4375 57.1875 -180.4375 57.1875 -178.24707031 55.62597656 C-176.14676208 54.22503967 -176.14676208 54.22503967 -175.4375 51.1875 C-174.7775 51.1875 -174.1175 51.1875 -173.4375 51.1875 C-170.16951348 71.893902 -170.16951348 71.893902 -174.91455078 79.58007812 C-178.66756024 84.2945036 -182.99052159 88.39106264 -187.46582031 92.41210938 C-190.01401609 94.70662147 -192.40787917 97.11845916 -194.8125 99.5625 C-195.48023438 100.20960938 -196.14796875 100.85671875 -196.8359375 101.5234375 C-198.64068989 103.30019189 -198.64068989 103.30019189 -200.4375 106.1875 C-201.0975 106.1875 -201.7575 106.1875 -202.4375 106.1875 C-202.66179687 106.74179687 -202.88609375 107.29609375 -203.1171875 107.8671875 C-204.8379928 110.89132462 -207.04787557 112.90994797 -209.5625 115.3125 C-220.36128009 125.23937357 -220.36128009 125.23937357 -224.63185066 138.42894179 C-224.63848749 139.1640391 -224.64512433 139.89913641 -224.65196228 140.6565094 C-224.66269463 141.43591021 -224.67342697 142.21531102 -224.68448454 143.01833004 C-224.71906382 145.64442625 -224.74624639 148.27054362 -224.77319336 150.89672852 C-224.7958185 152.7740253 -224.818687 154.65131916 -224.84178162 156.52861023 C-225.04404682 173.68059247 -225.1559743 190.83362465 -225.24500179 207.98652744 C-225.30617027 219.52084209 -225.39380258 231.05368506 -225.54858398 242.5871582 C-225.68359229 252.64738516 -225.76938367 262.70659474 -225.79540926 272.76771683 C-225.81078378 278.09280038 -225.85027006 283.41518561 -225.94828606 288.73944283 C-226.0396457 293.75305949 -226.06457924 298.76269733 -226.03930092 303.77704048 C-226.04154994 305.61338455 -226.06766199 307.44988399 -226.1198349 309.28548813 C-226.68633689 318.65252418 -226.68633689 318.65252418 -222.98655629 326.84614825 C-219.17111258 330.04477816 -214.97996833 332.2014353 -210.4375 334.1875 C-210.59877066 333.0340808 -210.76004131 331.8806616 -210.92619896 330.69229031 C-211.44800769 326.49718221 -211.59900985 322.33546497 -211.61831665 318.1108551 C-211.62552117 317.3385784 -211.63272568 316.5663017 -211.64014852 315.77062267 C-211.66271657 313.20459932 -211.67838672 310.63858506 -211.69384766 308.07250977 C-211.70831197 306.22388487 -211.72306983 304.37526225 -211.73809814 302.52664185 C-211.86793839 285.70782175 -211.93416483 268.88836052 -211.98594093 252.06913853 C-212.02489141 239.64613809 -212.09337343 227.22404079 -212.20048869 214.80143696 C-212.27337222 206.05302678 -212.31177936 197.30486372 -212.32496679 188.5561623 C-212.33382213 183.33581587 -212.35799873 178.11659026 -212.41963577 172.89657784 C-212.47695901 167.98691283 -212.49153359 163.07894457 -212.47376251 158.1689949 C-212.47463934 156.37146478 -212.49083783 154.57386407 -212.52380753 152.77663612 C-212.75972198 139.20864794 -212.75972198 139.20864794 -209.48437119 134.20194817 C-207.24928901 131.95523099 -204.96322497 130.09212831 -202.4375 128.1875 C-201.26512925 126.91509105 -200.1193873 125.61683766 -199.01953125 124.28125 C-194.6314941 119.17811594 -189.88019879 114.44615711 -185.125 109.6875 C-183.76665039 108.31078125 -183.76665039 108.31078125 -182.38085938 106.90625 C-181.51654297 106.04 -180.65222656 105.17375 -179.76171875 104.28125 C-178.97885498 103.49427734 -178.19599121 102.70730469 -177.3894043 101.89648438 C-175.4375 100.1875 -175.4375 100.1875 -173.4375 100.1875 C-173.43530016 102.13366258 -173.43530016 102.13366258 -173.43305588 104.11914158 C-173.39735119 134.92021455 -173.34110617 165.72117389 -173.25957905 196.52215708 C-173.24956163 200.31351774 -173.2397175 204.10487884 -173.22998047 207.89624023 C-173.2280391 208.6510296 -173.22609772 209.40581896 -173.22409752 210.18348073 C-173.19307938 222.40371565 -173.17609739 234.62393179 -173.16430578 246.84419865 C-173.15189325 259.38403364 -173.12438957 271.92377009 -173.08288693 284.46354288 C-173.05775438 292.20081301 -173.04438254 299.93791974 -173.04607043 307.67523127 C-173.04610371 313.60896678 -173.02513688 319.54251166 -172.99633217 325.47618103 C-172.98780684 327.90980039 -172.986101 330.34345458 -172.99169731 332.77708244 C-172.99831875 336.09870717 -172.98045953 339.41933558 -172.95648193 342.74085999 C-172.96812256 344.18689003 -172.96812256 344.18689003 -172.97999835 345.6621328 C-172.90285555 351.69493533 -171.94627031 355.23973232 -168.4375 360.1875 C-165.07026233 363.28890312 -161.2646339 365.68495523 -157.4375 368.1875 C-156.45910156 368.868125 -155.48070312 369.54875 -154.47265625 370.25 C-153.49167969 370.889375 -152.51070312 371.52875 -151.5 372.1875 C-150.62472656 372.765 -149.74945313 373.3425 -148.84765625 373.9375 C-142.67603227 376.19972185 -136.61545568 376.5033825 -130.47290039 373.95996094 C-127.51621205 372.29220118 -124.73332251 370.48704818 -121.9375 368.5625 C-120.97585938 367.94503906 -120.01421875 367.32757812 -119.0234375 366.69140625 C-113.44358023 362.9999965 -108.75108148 359.84060263 -106.85949802 353.1400423 C-106.23800799 348.79173846 -106.28376021 344.482584 -106.27928162 340.09526062 C-106.27434364 339.07010041 -106.26940566 338.04494019 -106.26431805 336.98871452 C-106.24894489 333.54936274 -106.24058287 330.11002964 -106.23217773 326.6706543 C-106.22259907 324.20689225 -106.212589 321.74313184 -106.20217896 319.27937317 C-106.18072972 313.97287731 -106.16228569 308.66638401 -106.14657402 303.359869 C-106.12385245 295.68755965 -106.09571281 288.01527767 -106.06625474 280.34299157 C-106.01860686 267.89493291 -105.97533509 255.44686305 -105.93481445 242.9987793 C-105.89544526 230.90729907 -105.85401562 218.8158288 -105.80981445 206.72436523 C-105.80572804 205.60621232 -105.80572804 205.60621232 -105.80155908 204.46547046 C-105.78787937 200.72580569 -105.77415914 196.98614107 -105.76041877 193.24647653 C-105.64649804 162.22683823 -105.53975186 131.20717906 -105.4375 100.1875 C-102.28918065 101.67669532 -100.48861534 103.0177462 -98.27734375 105.7265625 C-93.37933796 111.5152337 -87.92108431 116.7165488 -82.49414062 122.00390625 C-81.71361328 122.77347656 -80.93308594 123.54304688 -80.12890625 124.3359375 C-79.41935791 125.02864746 -78.70980957 125.72135742 -77.97875977 126.43505859 C-76.4375 128.1875 -76.4375 128.1875 -76.4375 130.1875 C-75.7775 130.1875 -75.1175 130.1875 -74.4375 130.1875 C-71.21716995 132.69643049 -68.80076548 135.53215871 -67.91586304 139.56451416 C-67.76160701 142.3146431 -67.78835107 145.00511518 -67.88671875 147.7578125 C-67.89758011 148.75706757 -67.90844147 149.75632263 -67.91963196 150.78585815 C-67.95964505 153.96260887 -68.04091749 157.13663868 -68.125 160.3125 C-68.18251149 163.49512349 -68.23156127 166.67774531 -68.27680969 169.86056519 C-68.30780169 171.83625252 -68.34746634 173.81182786 -68.39689636 175.78713989 C-68.41633804 176.68512299 -68.43577972 177.58310608 -68.45581055 178.50830078 C-68.47612839 179.29326935 -68.49644623 180.07823792 -68.51737976 180.88699341 C-68.50781856 183.23700279 -68.50781856 183.23700279 -67.87385559 185.66744995 C-67.38185225 188.50887806 -67.79736059 190.39547941 -68.4375 193.1875 C-68.52387953 194.79195664 -68.56531979 196.39932411 -68.56689453 198.00610352 C-68.57162277 199.3976339 -68.57162277 199.3976339 -68.57644653 200.817276 C-68.5744223 201.80698898 -68.57239807 202.79670197 -68.5703125 203.81640625 C-68.57126923 204.84305893 -68.57222595 205.86971161 -68.57321167 206.92747498 C-68.57389097 209.09349631 -68.57205415 211.25951971 -68.56787109 213.42553711 C-68.56251386 216.74142013 -68.56782741 220.05716803 -68.57421875 223.37304688 C-68.57355803 225.47916697 -68.572277 227.58528697 -68.5703125 229.69140625 C-68.57334885 231.17901207 -68.57334885 231.17901207 -68.57644653 232.69667053 C-68.57329437 233.62120529 -68.57014221 234.54574005 -68.56689453 235.49829102 C-68.56609894 236.3092775 -68.56530334 237.12026398 -68.56448364 237.95582581 C-68.51738549 240.16351292 -68.51738549 240.16351292 -67.90245056 242.12945557 C-67.2956523 244.8153708 -67.58446678 247.06721166 -67.86889648 249.80541992 C-68.60635553 258.31094862 -68.56293995 266.77102881 -68.53515625 275.30078125 C-68.5332864 277.00855976 -68.53186518 278.7163388 -68.53086853 280.42411804 C-68.52708792 284.87423233 -68.51729682 289.32431291 -68.50616455 293.77441406 C-68.4958535 298.3333287 -68.49135034 302.89224889 -68.48632812 307.45117188 C-68.47566961 316.36329723 -68.45823898 325.2753927 -68.4375 334.1875 C-59.59601097 330.43352337 -59.59601097 330.43352337 -53.6098609 323.34551692 C-52.32474714 317.93423358 -52.64017074 312.37182545 -52.78466797 306.85131836 C-52.78206588 304.99105576 -52.77334787 303.13079322 -52.75900269 301.27058411 C-52.73795533 296.23592151 -52.8036216 291.20576914 -52.8862586 286.17187953 C-52.95912309 280.89601454 -52.95539159 275.62017397 -52.96096802 270.34388733 C-52.98122616 261.4855551 -53.05354835 252.62891709 -53.16162109 243.77124023 C-53.29998187 232.41300974 -53.35545321 221.05599015 -53.38360405 209.6970129 C-53.40819913 199.9163653 -53.46766028 190.13597645 -53.53437281 180.3555367 C-53.55466152 177.21886015 -53.57081468 174.08218019 -53.58666611 170.94547844 C-53.61410439 166.01131189 -53.66322852 161.07779551 -53.72896194 156.14399529 C-53.75017321 154.33651296 -53.76480205 152.5289392 -53.77226257 150.72134781 C-53.78380211 148.24764208 -53.81991672 145.7754525 -53.86227417 143.30210876 C-53.86017248 142.5922704 -53.85807079 141.88243203 -53.85590541 141.15108341 C-54.01161572 134.84476752 -56.27312524 129.87747391 -60.17675781 125.02587891 C-60.74233398 124.49397949 -61.30791016 123.96208008 -61.890625 123.4140625 C-62.509375 122.81722656 -63.128125 122.22039062 -63.765625 121.60546875 C-64.39984375 121.01378906 -65.0340625 120.42210937 -65.6875 119.8125 C-66.96777482 118.60081134 -68.24405177 117.38487966 -69.515625 116.1640625 C-70.35722168 115.37636475 -70.35722168 115.37636475 -71.21582031 114.57275391 C-72.4375 113.1875 -72.4375 113.1875 -72.4375 111.1875 C-73.0975 111.1875 -73.7575 111.1875 -74.4375 111.1875 C-75.63671875 109.96484375 -75.63671875 109.96484375 -77.125 108.125 C-80.83841351 103.73926321 -84.85341029 99.72272026 -88.9375 95.6875 C-93.54233524 91.12876934 -98.0637078 86.56893796 -102.23828125 81.60546875 C-103.52305174 80.04642049 -103.52305174 80.04642049 -105.4375 78.1875 C-106.74003498 70.20025722 -107.4136865 61.09224598 -105.4375 53.1875 C-102.430682 54.52749498 -100.43987391 55.98595291 -98.1875 58.375 C-95.83676963 60.79996396 -93.45591821 63.07252296 -90.875 65.25 C-86.11288381 69.33849661 -81.7513302 73.82157754 -77.36108398 78.30102539 C-74.98833175 80.70817013 -72.73497635 82.96679174 -70.015625 84.984375 C-69.49484375 85.38140625 -68.9740625 85.7784375 -68.4375 86.1875 C-68.4375 86.8475 -68.4375 87.5075 -68.4375 88.1875 C-67.84901779 88.46932129 -67.26053558 88.75114258 -66.65422058 89.04150391 C-52.86117515 96.17220694 -38.59157986 109.44057171 -31.4375 123.1875 C-28.89089783 131.66921451 -29.58787055 140.54451613 -29.92578125 149.2890625 C-29.96122417 151.82042535 -29.9883215 154.35191673 -30.00772095 156.88345337 C-30.05885568 162.23581844 -30.1530808 167.58476213 -30.27926636 172.93566895 C-30.46637518 181.17308843 -30.456661 189.40462759 -30.40258789 197.64355469 C-30.39411205 199.02613426 -30.38567369 200.40871407 -30.37727261 201.7912941 C-30.36452759 203.87092413 -30.35169087 205.95055304 -30.33833808 208.03017926 C-30.29159554 215.64643195 -30.29417463 223.26254212 -30.30078125 230.87890625 C-30.30183739 232.26013056 -30.30288548 233.64135487 -30.30392551 235.02257919 C-30.30551233 237.1007336 -30.30713116 239.17888792 -30.30891603 241.25704217 C-30.31338102 246.97545769 -30.31010773 252.6938519 -30.3053025 258.41226614 C-30.30077374 264.03213784 -30.30011535 269.65200018 -30.30274117 275.27187312 C-30.30428691 278.58214774 -30.30413886 281.8924045 -30.30120468 285.20267868 C-30.29867903 288.83094228 -30.30251057 292.45914344 -30.30810547 296.08740234 C-30.30608124 297.16009369 -30.30405701 298.23278503 -30.30197144 299.33798218 C-30.30620117 300.81077637 -30.30620117 300.81077637 -30.31051636 302.31332397 C-30.31089338 303.16347265 -30.31127041 304.01362133 -30.31165886 304.88953209 C-30.43365666 307.11731727 -30.81705764 309.04981737 -31.4375 311.1875 C-18.0373983 303.17920912 -18.0373983 303.17920912 -5.1875 294.33203125 C-3.4375 293.1875 -3.4375 293.1875 -1.4375 293.1875 C-3.132673 238.41365266 -4.9480046 183.64423818 -6.83624649 128.87675095 C-6.97136052 124.95728311 -7.10619034 121.03780556 -7.24092239 117.11832458 C-7.5519665 108.06997248 -7.86441097 99.02166958 -8.17789769 89.97340178 C-8.25345515 87.79037701 -8.32879306 85.60734476 -8.40408134 83.42431068 C-8.92591572 68.30507267 -9.46797233 53.18708215 -10.06982422 38.07080078 C-10.14443139 36.17908 -10.14443139 36.17908 -10.22054577 34.24914265 C-10.45327251 28.3519101 -10.69082303 22.4549637 -10.93836975 16.55833435 C-11.02023656 14.51228651 -11.10190917 12.46623088 -11.18334961 10.42016602 C-11.24509149 9.02243171 -11.24509149 9.02243171 -11.30808067 7.59646034 C-11.39048642 5.46129432 -11.42016571 3.32418533 -11.4375 1.1875 C-9.07794489 -1.17205511 -3.16997174 0.00207595 0 0 Z " fill="#010101" transform="translate(651.4375,349.8125)"/>
<path d="M0 0 C1.88183798 -0.00435286 3.7636742 -0.00953791 5.64550781 -0.01548767 C10.73448932 -0.02882796 15.82339633 -0.02946183 20.9123919 -0.02692437 C25.17152695 -0.02585116 29.43064714 -0.03074702 33.68977898 -0.03552979 C43.74420651 -0.04660805 53.79859667 -0.04707202 63.85302734 -0.04101562 C74.20039664 -0.03497827 84.54762987 -0.0472847 94.89497596 -0.06858569 C103.80147295 -0.08624149 112.70792679 -0.09219674 121.61444062 -0.08894795 C126.92386369 -0.08714111 132.23318971 -0.08971115 137.54259682 -0.10366249 C142.53890367 -0.1163009 147.53499954 -0.11424017 152.53130341 -0.1012516 C154.35610464 -0.09889922 156.18092101 -0.101572 158.00570488 -0.10987473 C177.49592586 -0.19210185 193.56205671 2.91296489 208.1394043 16.8996582 C224.42067629 34.35823558 224.58383192 55.39362692 225.4597168 77.90356445 C225.54848591 80.06877965 225.63771208 82.23397614 225.72737122 84.39915466 C225.91249299 88.90802244 226.0926277 93.41705294 226.26904297 97.92626953 C226.49539932 103.70341961 226.73360955 109.48000931 226.97539806 115.25653172 C227.16084047 119.71470272 227.34046282 124.17309333 227.51827431 128.63157463 C227.60389284 130.76269374 227.69122917 132.89374457 227.78032494 135.02472115 C227.90351957 137.99398524 228.01896814 140.96345167 228.13232422 143.93310547 C228.17018036 144.80950684 228.2080365 145.6859082 228.24703979 146.58886719 C228.39429544 150.65321888 228.41873956 154.30531262 227.35424805 158.2746582 C224.04176618 158.30353967 220.72931637 158.32141619 217.41674805 158.3371582 C215.99845703 158.34972656 215.99845703 158.34972656 214.55151367 158.36254883 C213.65239258 158.36577148 212.75327148 158.36899414 211.8269043 158.37231445 C210.99425049 158.37755127 210.16159668 158.38278809 209.30371094 158.38818359 C207.35424805 158.2746582 207.35424805 158.2746582 206.35424805 157.2746582 C206.1564968 155.23754951 206.02816746 153.19371862 205.92456055 151.1496582 C205.88983139 150.4841243 205.85510223 149.81859039 205.81932068 149.13288879 C205.74265139 147.64531548 205.66834179 146.15761929 205.59597778 144.66983032 C205.47726849 142.23403975 205.35165145 139.79867597 205.22509766 137.36328125 C204.70808795 127.25175425 204.25877433 117.13788068 203.84265137 107.02175903 C203.63230744 101.91029197 203.41397501 96.79917087 203.19466019 91.68808174 C203.0079569 87.31445298 202.8330582 82.94054567 202.66650677 78.56610584 C202.55785715 75.78216839 202.43854502 72.99875493 202.31666756 70.21536827 C202.23591697 68.29731095 202.1679557 66.37872839 202.10044861 64.4601593 C201.50503997 51.32600013 198.94017875 40.24133811 189.10424805 30.9621582 C179.1334482 23.40098523 168.5423315 23.69945039 156.5690918 23.75708008 C154.67253076 23.75165307 152.77597395 23.74452717 150.87942505 23.73583984 C145.75130412 23.71767244 140.62350667 23.7246468 135.4953804 23.73735619 C130.11621511 23.74751803 124.7370766 23.73808168 119.35791016 23.73181152 C110.32636569 23.72454438 101.29495228 23.73409833 92.26342773 23.75317383 C81.83755586 23.77494071 71.41199692 23.76788869 60.98613262 23.74586821 C52.01766891 23.72768762 43.04929914 23.72516889 34.08082294 23.73562288 C28.73179816 23.74184319 23.38292024 23.74273376 18.03390503 23.72947693 C13.00387881 23.71788035 7.97425415 23.72601362 2.94427109 23.74905396 C1.10370422 23.75432074 -0.73689672 23.75286226 -2.5774498 23.7440033 C-14.76011435 23.69079375 -26.39501196 24.31795151 -35.64575195 33.2746582 C-42.71213157 42.08723324 -44.56719378 50.74202969 -44.98706055 61.897995 C-45.03747498 63.18920258 -45.0878894 64.48041016 -45.13983154 65.81074524 C-45.19134542 67.22408835 -45.24279595 68.63743376 -45.29418945 70.05078125 C-45.35150196 71.55270612 -45.40914832 73.05461829 -45.46710205 74.55651855 C-45.59083305 77.78009915 -45.7123263 81.00375344 -45.83209229 84.22748375 C-46.02158419 89.32465119 -46.21677219 94.42159083 -46.4128418 99.51850891 C-46.89874055 112.17314158 -47.37668799 124.82807333 -47.85400391 137.48303223 C-48.22549274 147.32913149 -48.59896579 157.17514763 -48.97813606 167.02095443 C-49.17306267 172.08846109 -49.3639691 177.15609845 -49.55183411 182.22387159 C-49.66941881 185.37297146 -49.79049185 188.52193012 -49.91252899 191.67086029 C-49.96842589 193.13171932 -50.02286747 194.59263486 -50.07575226 196.05360603 C-50.14809634 198.04663966 -50.22612224 200.03946464 -50.30444336 202.03227234 C-50.34646881 203.14776805 -50.38849426 204.26326376 -50.43179321 205.41256237 C-50.64575195 208.2746582 -50.64575195 208.2746582 -51.64575195 212.2746582 C-62.04075195 211.7796582 -62.04075195 211.7796582 -72.64575195 211.2746582 C-72.73183754 195.74561931 -72.42001632 180.28985888 -71.8059082 164.7746582 C-71.71823789 162.47901858 -71.63096155 160.18336387 -71.54405212 157.88769531 C-71.31625888 151.89550646 -71.08364499 145.90351512 -70.84979248 139.91156006 C-70.56970028 132.71455541 -70.29488613 125.51734782 -70.01970005 118.32015419 C-69.79888434 112.54520115 -69.57726375 106.77028308 -69.35325623 100.99545288 C-68.98643694 91.5041752 -68.62440693 82.01329671 -68.33544922 72.51928711 C-68.31340077 71.80463665 -68.29135233 71.08998619 -68.26863575 70.35367966 C-68.17265219 67.2189135 -68.08187582 64.08416052 -68.00062561 60.94897461 C-67.46434402 42.6152618 -62.71790984 27.66410148 -49.64575195 14.2746582 C-34.70096898 1.48211744 -18.84118651 -0.0288539 0 0 Z " fill="#010101" transform="translate(433.645751953125,179.725341796875)"/>
<path d="M0 0 C12.54 0 25.08 0 38 0 C38.495 2.97 38.495 2.97 39 6 C38.34 6 37.68 6 37 6 C37.00151888 6.62540523 37.00303776 7.25081045 37.00460267 7.89516735 C37.0941186 44.96329212 37.16274806 82.03140091 37.20426132 119.09961164 C37.20926413 123.55062018 37.21444142 128.0016285 37.21972656 132.45263672 C37.2207758 133.33875082 37.22182505 134.22486493 37.22290608 135.13783097 C37.24031043 149.48491597 37.27184829 163.83193685 37.30861118 178.17898381 C37.34601977 192.90081999 37.36823568 207.62262259 37.37635398 222.34450436 C37.38184192 231.42841998 37.39917394 240.51215437 37.43166587 249.5960142 C37.45281274 255.82550192 37.45919966 262.05489597 37.45400551 268.28441697 C37.45144398 271.87835527 37.45536538 275.47197688 37.4768219 279.06585884 C37.49993008 282.96492115 37.49194417 286.86357203 37.48101807 290.76269531 C37.49266943 291.89500422 37.5043208 293.02731314 37.51632524 294.19393444 C37.46529998 300.9242923 36.58320624 305.25929841 33 311 C30.60346768 313.2384106 27.90916261 314.51236003 25 316 C23.906875 316.721875 22.81375 317.44375 21.6875 318.1875 C16.5286351 319.32419905 13.99776511 317.57575302 9.59765625 314.89453125 C5.13920315 311.64287749 1.75935503 308.27806509 0 303 C-0.09110387 301.30154475 -0.12375039 299.59968994 -0.12304783 297.89879322 C-0.12503888 296.83735122 -0.12702993 295.77590921 -0.12908131 294.6823023 C-0.12616847 293.51208349 -0.12325563 292.34186468 -0.12025452 291.13618469 C-0.12110894 289.89630505 -0.12196337 288.65642541 -0.12284368 287.37897366 C-0.12420906 283.93105379 -0.12107217 280.48319032 -0.11606562 277.03527725 C-0.11175627 273.31954884 -0.11320789 269.60382224 -0.1139679 265.88809204 C-0.11449282 259.44820554 -0.11134928 253.00832916 -0.10573006 246.56844521 C-0.09761083 237.25739839 -0.0949994 227.94635647 -0.09374207 218.6353065 C-0.09155221 203.5295733 -0.08489393 188.4238455 -0.07543945 173.31811523 C-0.06626361 158.64233426 -0.05918362 143.96655475 -0.05493164 129.29077148 C-0.05466892 128.38649999 -0.05440619 127.48222851 -0.05413551 126.55055485 C-0.05283049 122.01419317 -0.05156678 117.47783148 -0.05032361 112.94146979 C-0.03995307 75.29430923 -0.02206178 37.64715539 0 0 Z " fill="#000000" transform="translate(493,393)"/>
<path d="M0 0 C21.96264101 22.13671743 33.05958134 52.23565233 32.96484375 83.21484375 C32.35969718 110.44366363 22.79447542 135.16422793 5.9375 156.4375 C5.1846875 157.41847656 4.431875 158.39945313 3.65625 159.41015625 C-0.40332674 164.63906759 -0.40332674 164.63906759 -2.0625 166.4375 C-2.7225 166.4375 -3.3825 166.4375 -4.0625 166.4375 C-4.0625 167.0975 -4.0625 167.7575 -4.0625 168.4375 C-4.7225 168.4375 -5.3825 168.4375 -6.0625 168.4375 C-6.0625 169.0975 -6.0625 169.7575 -6.0625 170.4375 C-9.0625 172.4375 -9.0625 172.4375 -11.859375 172.40234375 C-15.92472232 171.17778181 -18.36372896 168.91543067 -21.3125 166 C-21.84101562 165.49662109 -22.36953125 164.99324219 -22.9140625 164.47460938 C-24.9911916 162.48973855 -27.03102801 160.46897199 -29.0625 158.4375 C-28.11375 157.98375 -27.165 157.53 -26.1875 157.0625 C-9.52856359 147.48529769 1.68316083 126.07172064 6.87890625 108.19921875 C12.98449001 82.62655634 10.17658758 56.14594383 -2.97900391 33.19335938 C-15.72233458 12.54215743 -36.08280516 -2.15515857 -59.625 -7.9375 C-85.21440679 -13.86455293 -109.72710834 -10.19206536 -132.515625 2.8203125 C-154.06154258 16.50130924 -167.47702451 36.98834666 -173.625 61.45019531 C-179.21553224 86.84468886 -173.69057184 113.60190272 -160.0625 135.4375 C-150.43592554 149.53608888 -150.43592554 149.53608888 -137.0625 159.4375 C-137.7225 159.4375 -138.3825 159.4375 -139.0625 159.4375 C-139.0625 160.0975 -139.0625 160.7575 -139.0625 161.4375 C-141.04196592 162.80113208 -143.0444245 164.13168644 -145.0625 165.4375 C-145.64 166.015 -146.2175 166.5925 -146.8125 167.1875 C-147.43125 167.80625 -147.43125 167.80625 -148.0625 168.4375 C-148.7225 168.4375 -149.3825 168.4375 -150.0625 168.4375 C-150.3925 169.4275 -150.7225 170.4175 -151.0625 171.4375 C-153.4375 172.75 -153.4375 172.75 -156.0625 173.4375 C-157.0525 172.7775 -158.0425 172.1175 -159.0625 171.4375 C-159.0625 170.7775 -159.0625 170.1175 -159.0625 169.4375 C-159.701875 169.169375 -160.34125 168.90125 -161 168.625 C-163.0625 167.4375 -163.0625 167.4375 -164.0625 164.4375 C-164.7225 164.4375 -165.3825 164.4375 -166.0625 164.4375 C-167.35595703 163.09912109 -167.35595703 163.09912109 -168.8203125 161.2109375 C-169.35962402 160.51613281 -169.89893555 159.82132813 -170.45458984 159.10546875 C-171.0264502 158.34878906 -171.59831055 157.59210938 -172.1875 156.8125 C-173.06656006 155.65041016 -173.06656006 155.65041016 -173.96337891 154.46484375 C-182.02209916 143.63989611 -187.7875297 132.38137714 -192.71484375 119.859375 C-193.92494562 116.63898269 -193.92494562 116.63898269 -195.0625 114.4375 C-201.8045791 80.71863985 -198.23337284 45.63816723 -179.0625 16.4375 C-176.87779597 13.29533488 -174.54261767 10.35127282 -172.0625 7.4375 C-171.27230469 6.50164062 -170.48210937 5.56578125 -169.66796875 4.6015625 C-149.91297499 -18.18043592 -122.94873947 -31.04738611 -93.125 -34.375 C-58.30237403 -36.29624833 -25.07437618 -24.22660793 0 0 Z " fill="#020202" transform="translate(595.0625,246.5625)"/>
<path d="M0 0 C14.4527066 12.32789814 23.47262649 29.53491669 25.81640625 48.40234375 C27.22331864 70.28490029 23.8012754 90.54427098 9.28125 107.73828125 C3.97513867 113.47325419 -1.58966456 118.94983412 -7.18359375 124.40234375 C-11.60250868 121.51460299 -15.86113589 118.47766795 -20.05859375 115.27734375 C-20.6515625 114.83519531 -21.24453125 114.39304687 -21.85546875 113.9375 C-23.33664519 112.807847 -24.76540096 111.61012218 -26.18359375 110.40234375 C-26.18359375 109.74234375 -26.18359375 109.08234375 -26.18359375 108.40234375 C-24.3125 107.2109375 -24.3125 107.2109375 -21.74609375 105.83984375 C-8.3581806 98.01918161 -1.10857243 86.13610986 2.81640625 71.40234375 C5.38481615 58.27113551 4.06033286 43.7381965 -2.5 31.90234375 C-10.76753341 19.62572801 -22.36703626 10.12532796 -37.08203125 6.8046875 C-53.9783136 4.61285238 -69.14490596 7.15842731 -83.18359375 17.40234375 C-93.56608084 26.61879767 -100.21200411 39.51772045 -101.34765625 53.40917969 C-102.23068462 69.54652321 -98.77389493 84.1457772 -87.93359375 96.65234375 C-83.41537163 101.40917726 -78.43196645 105.4797604 -73.18359375 109.40234375 C-74.24707031 110.23185547 -74.24707031 110.23185547 -75.33203125 111.078125 C-79.2765258 114.29315823 -82.94544938 117.78227168 -86.66015625 121.2578125 C-89.18359375 123.40234375 -89.18359375 123.40234375 -92.18359375 124.40234375 C-92.78494141 123.69271484 -92.78494141 123.69271484 -93.3984375 122.96875 C-96.65433629 119.1812759 -99.97649793 115.63165233 -103.62109375 112.21484375 C-117.49707934 98.45705224 -124.35239231 78.69389445 -124.55859375 59.40234375 C-124.31997442 37.0561861 -115.66070701 18.17761506 -100.18359375 2.40234375 C-99.58160156 1.77585937 -98.97960937 1.149375 -98.359375 0.50390625 C-71.67564949 -25.08005617 -27.52857104 -21.57062738 0 0 Z " fill="#040404" transform="translate(561.18359375,270.59765625)"/>
<path d="M0 0 C0.98308877 11.50858348 1.2955495 22.99211219 1.53515625 34.53515625 C1.57833132 36.50508637 1.62174746 38.47501121 1.66539001 40.44493103 C1.7557498 44.55723785 1.84375078 48.66958596 1.92993164 52.78198242 C2.03918345 57.99002321 2.15348971 63.19793741 2.26950932 68.40583134 C2.35965421 72.47190109 2.44746048 76.53801887 2.53457451 80.60415459 C2.57583006 82.52103413 2.61767225 84.43790116 2.66017342 86.35475349 C2.79696444 92.56955991 2.91234786 98.78430183 3 105 C3.01382092 105.94225811 3.02764183 106.88451622 3.04188156 107.85532761 C3.07887337 110.70230371 3.10292285 113.5490979 3.12280273 116.39624023 C3.13438195 117.25541329 3.14596117 118.11458635 3.15789127 118.99979496 C3.2037716 131.79259599 -1.40267278 142.82632635 -10.1015625 152.28515625 C-19.26894726 160.95044043 -29.6142067 164.52871789 -42 166 C-42.99 165.67 -43.98 165.34 -45 165 C-45.04677856 148.57943162 -45.0820175 132.15888495 -45.10362434 115.73826599 C-45.11392467 108.11341114 -45.12796118 100.48859776 -45.15087891 92.86376953 C-45.17085091 86.21581048 -45.18372547 79.56788148 -45.18817699 72.91989326 C-45.19077793 69.40179855 -45.19686522 65.88378976 -45.21146011 62.36572266 C-45.22764363 58.43260115 -45.22797724 54.49956271 -45.22705078 50.56640625 C-45.23783661 48.82823387 -45.23783661 48.82823387 -45.24884033 47.0549469 C-45.22672787 38.37191579 -44.72065188 30.98428902 -39 24 C-36.84582352 22.31917546 -34.80321617 20.87120672 -32.5 19.4375 C-31.86360596 19.02765869 -31.22721191 18.61781738 -30.5715332 18.19555664 C-29.16607216 17.2910785 -27.75745556 16.39149028 -26.34619141 15.49609375 C-23.76386138 13.8494217 -21.1993937 12.1770883 -18.63671875 10.5 C-15.10818044 8.192419 -11.5791093 5.88576362 -8.04296875 3.58984375 C-7.31102295 3.11409912 -6.57907715 2.63835449 -5.82495117 2.14819336 C-2.41058899 0 -2.41058899 0 0 0 Z " fill="#000000" transform="translate(675,712)"/>
<path d="M0 0 C3.69608407 1.43605446 6.94359555 3.06580543 10.31640625 5.16015625 C11.32292236 5.7847876 12.32943848 6.40941895 13.36645508 7.05297852 C40.6108152 24.18294018 40.6108152 24.18294018 44 32 C46.39010051 45.6752552 45.12671755 60.46165306 45.09765625 74.27734375 C45.09578795 76.90149407 45.09436599 79.52564474 45.09336853 82.14979553 C45.09028355 88.31168298 45.08210912 94.4735523 45.07201904 100.63543183 C45.06076894 107.66103645 45.05532523 114.68664203 45.05032361 121.71225345 C45.03992352 136.14151158 45.02238007 150.57075553 45 165 C41.22044143 166.25985286 38.15576548 165.64024579 34.3125 165.0625 C33.61060547 164.96259766 32.90871094 164.86269531 32.18554688 164.75976562 C30.45613473 164.51270675 28.7279373 164.25717148 27 164 C27 163.34 27 162.68 27 162 C26.2678125 161.89171875 25.535625 161.7834375 24.78125 161.671875 C15.02923354 159.3160508 7.16551775 150.17400611 2 142 C-2.0598987 133.57185586 -3.16695123 126.27435031 -3.12109375 117.015625 C-3.11822861 115.94886536 -3.11536346 114.88210571 -3.1124115 113.78302002 C-3.0209482 96.78731733 -2.59054616 79.79410102 -2.20043945 62.80322266 C-2.08404396 57.73053252 -1.97346291 52.65773399 -1.86443424 47.58488083 C-1.77857977 43.62457517 -1.68938592 39.66434983 -1.59924126 35.70413971 C-1.55710558 33.83371628 -1.51603478 31.96326851 -1.4761219 30.09279633 C-1.25965048 20.0280913 -0.93450534 10.02844124 0 0 Z " fill="#010101" transform="translate(349,712)"/>
<path d="M0 0 C2.3658617 1.38865795 4.5296736 2.78660572 6.75 4.375 C12.45463154 8.32176309 18.24627447 12.04421917 24.1875 15.625 C48.45231007 30.35693022 48.45231007 30.35693022 51 38 C51 48.56 51 59.12 51 70 C14.7 70 -21.6 70 -59 70 C-60.08086561 63.51480632 -60.15675346 57.5480194 -60 51 C-59.97164063 49.76378906 -59.94328125 48.52757812 -59.9140625 47.25390625 C-59.39173458 35.50152794 -59.39173458 35.50152794 -55 31 C-49.72203665 26.33600381 -44.01755112 22.67641729 -37.87109375 19.26171875 C-37.25363281 18.84535156 -36.63617188 18.42898438 -36 18 C-36 17.34 -36 16.68 -36 16 C-35.28739014 15.90396484 -34.57478027 15.80792969 -33.84057617 15.70898438 C-30.53463489 14.88384871 -28.38238368 13.54513631 -25.55078125 11.65625 C-24.03194336 10.65271484 -24.03194336 10.65271484 -22.48242188 9.62890625 C-20.91331055 8.57509766 -20.91331055 8.57509766 -19.3125 7.5 C-17.22571596 6.11389726 -15.13849848 4.72844679 -13.05078125 3.34375 C-12.12950439 2.72693359 -11.20822754 2.11011719 -10.2590332 1.47460938 C-6.2833912 -1.12053574 -4.6727231 -1.18478998 0 0 Z " fill="#000000" transform="translate(516,808)"/>
<path d="M0 0 C3.83080455 1.53232182 6.53556973 2.85826003 9.88671875 5.08984375 C10.81556885 5.70351807 11.74441895 6.31719238 12.70141602 6.94946289 C13.68682373 7.60551514 14.67223145 8.26156738 15.6875 8.9375 C22.74751663 13.59231608 29.8223479 18.19242991 37.0625 22.5625 C46.52203782 28.28023664 55.83388411 34.22127778 65.14599609 40.17529297 C73.42076485 45.46576531 81.70262134 50.74504951 90 56 C90.7223584 56.45761719 91.4447168 56.91523437 92.18896484 57.38671875 C94.0391601 58.55516851 95.89332701 59.71687988 97.75 60.875 C98.73484375 61.49117187 99.7196875 62.10734375 100.734375 62.7421875 C102.85953974 64.16179564 102.85953974 64.16179564 105 64 C105.58910156 64.59296875 106.17820312 65.1859375 106.78515625 65.796875 C109.16980511 68.16890667 111.52393193 69.58510396 114.4375 71.25 C119.45582085 74.40322299 123.02093502 77.29439777 125 83 C125.74984003 87.9391637 125.45886394 91.61551972 123 96 C122.34 96 121.68 96 121 96 C120.74524902 96.607229 120.49049805 97.21445801 120.22802734 97.84008789 C118.83898726 100.28319676 117.73426718 101.11409727 115.3515625 102.55859375 C114.60374512 103.02015869 113.85592773 103.48172363 113.08544922 103.95727539 C112.27350098 104.44574951 111.46155273 104.93422363 110.625 105.4375 C108.88980006 106.50647458 107.15545193 107.57683286 105.421875 108.6484375 C104.52533203 109.19983398 103.62878906 109.75123047 102.70507812 110.31933594 C98.38627599 113.00260614 94.13096566 115.78103231 89.875 118.5625 C89.0514502 119.09834717 88.22790039 119.63419434 87.37939453 120.1862793 C83.27836246 122.85505759 79.18543523 125.53550653 75.1015625 128.23046875 C73.93778076 128.99411743 73.93778076 128.99411743 72.75048828 129.77319336 C71.29004503 130.73155973 69.83249866 131.69436079 68.37841797 132.66235352 C65.27156548 134.69576885 62.63399549 136.24341405 59 137 C58.99413376 136.19313248 58.98826752 135.38626495 58.98222351 134.5549469 C58.9241188 126.91986756 58.85194168 119.28510796 58.76428509 111.65031528 C58.71971636 107.72596384 58.68043135 103.80171299 58.65356445 99.87719727 C58.62739565 96.08388972 58.58689969 92.29097209 58.53681374 88.49790764 C58.52023615 87.05682189 58.50866551 85.61566884 58.50238609 84.17450142 C58.44986282 73.219848 57.92911397 64.17473844 50.140625 55.91992188 C46.11761993 52.31169743 41.60624611 49.54841833 37 46.75 C36.0409375 46.151875 35.081875 45.55375 34.09375 44.9375 C30.11870222 42.46947583 26.12658094 40.04899096 22.046875 37.7578125 C19.58049697 36.3349021 17.44990005 34.91115738 15.25 33.125 C10.49237189 29.45375941 5.31308653 26.78937043 0 24 C0 16.08 0 8.16 0 0 Z " fill="#000000" transform="translate(350,672)"/>
<path d="M0 0 C0.72843764 5.54989961 1.24943675 11.08499833 1.3671875 16.68359375 C1.38894043 17.60197021 1.41069336 18.52034668 1.43310547 19.46655273 C0.87773942 22.71516235 -0.32196425 23.95182315 -2.75 26.125 C-4.81934719 27.11317141 -6.90563318 28.06602561 -9 29 C-12.13552478 30.8772653 -15.18481909 32.88554017 -18.25 34.875 C-19.90824843 35.92229771 -21.56839872 36.96659035 -23.23046875 38.0078125 C-24.03790527 38.51473633 -24.8453418 39.02166016 -25.67724609 39.54394531 C-27.1403791 40.46113317 -28.60415643 41.37729476 -30.06884766 42.29199219 C-46.16143301 51.33100657 -46.16143301 51.33100657 -56.57701111 65.74188232 C-57.15072797 68.80465823 -57.16609088 71.76379005 -57.20532227 74.87988281 C-57.21522186 75.56321686 -57.22512146 76.2465509 -57.23532104 76.95059204 C-57.26682044 79.20140154 -57.29164752 81.45223211 -57.31640625 83.703125 C-57.33698577 85.26683083 -57.35798251 86.83053122 -57.37937927 88.39422607 C-57.43449686 92.50410551 -57.48395148 96.61403428 -57.53222656 100.72399902 C-57.58251702 104.92021054 -57.63816366 109.11635065 -57.69335938 113.3125 C-57.80081475 121.54160624 -57.90228759 129.77077233 -58 138 C-60.25262094 136.72029697 -62.5043586 135.43908157 -64.75561523 134.15698242 C-65.39058678 133.79646538 -66.02555832 133.43594833 -66.67977142 133.06450653 C-70.94143385 130.63542395 -75.02765859 128.09739054 -79.0625 125.3125 C-86.04171271 120.5559665 -93.19978812 116.11645791 -100.41625977 111.72973633 C-122.36452126 98.30601341 -122.36452126 98.30601341 -124.6875 90.76953125 C-125.5043164 85.68995428 -125.06735458 82.27570639 -122 78 C-116.4978576 72.35611622 -109.54325866 66.51441955 -102 64 C-100.75599623 63.28831575 -99.53253323 62.54025556 -98.32421875 61.76953125 C-97.59025879 61.30361572 -96.85629883 60.8377002 -96.10009766 60.35766602 C-95.30394043 59.84776123 -94.5077832 59.33785645 -93.6875 58.8125 C-92.85009277 58.28003662 -92.01268555 57.74757324 -91.14990234 57.19897461 C-88.4311243 55.46932204 -85.71529948 53.73510753 -83 52 C-79.37579104 49.68625794 -75.75075527 47.37381813 -72.125 45.0625 C-71.20630127 44.47645996 -70.28760254 43.89041992 -69.34106445 43.28662109 C-63.05173634 39.28277272 -56.72462085 35.3448681 -50.375 31.4375 C-42.64854988 26.68021017 -35.01511866 21.79710814 -27.42016602 16.83300781 C-21.4112246 12.90816508 -15.37523111 9.02875924 -9.3125 5.1875 C-8.49185059 4.66534912 -7.67120117 4.14319824 -6.82568359 3.60522461 C-5.69960693 2.89378296 -5.69960693 2.89378296 -4.55078125 2.16796875 C-3.88731689 1.74797607 -3.22385254 1.3279834 -2.5402832 0.89526367 C-1 0 -1 0 0 0 Z " fill="#000000" transform="translate(673,672)"/>
<path d="M0 0 C0.33 0 0.66 0 1 0 C1 2.97 1 5.94 1 9 C0.67 9 0.34 9 0 9 C0 6.03 0 3.06 0 0 Z " fill="#4B6874" transform="translate(544,663)"/>
<path d="M0 0 C0.33 0 0.66 0 1 0 C1 2.97 1 5.94 1 9 C0.67 9 0.34 9 0 9 C0 6.03 0 3.06 0 0 Z " fill="#71636A" transform="translate(491,615)"/>
<path d="M0 0 C0.33 0 0.66 0 1 0 C1 2.31 1 4.62 1 7 C0.67 7 0.34 7 0 7 C0 4.69 0 2.38 0 0 Z " fill="#55494C" transform="translate(544,534)"/>
<path d="M0 0 C0.33 0 0.66 0 1 0 C1 2.31 1 4.62 1 7 C0.67 7 0.34 7 0 7 C0 4.69 0 2.38 0 0 Z " fill="#706770" transform="translate(544,518)"/>
<path d="M0 0 C0.33 0 0.66 0 1 0 C1 1.98 1 3.96 1 6 C0.67 6 0.34 6 0 6 C0 4.02 0 2.04 0 0 Z " fill="#439898" transform="translate(544,591)"/>
<path d="M0 0 C0.33 0 0.66 0 1 0 C1 1.98 1 3.96 1 6 C0.67 6 0.34 6 0 6 C0 4.02 0 2.04 0 0 Z " fill="#5C5C5C" transform="translate(479,552)"/>
<path d="M0 0 C0.33 0 0.66 0 1 0 C1 1.98 1 3.96 1 6 C0.67 6 0.34 6 0 6 C0 4.02 0 2.04 0 0 Z " fill="#676767" transform="translate(596,541)"/>
<path d="M0 0 C0.33 0 0.66 0 1 0 C1 1.98 1 3.96 1 6 C0.67 6 0.34 6 0 6 C0 4.02 0 2.04 0 0 Z " fill="#6E4E6E" transform="translate(544,542)"/>
<path d="M0 0 C0.33 0 0.66 0 1 0 C1 1.98 1 3.96 1 6 C0.67 6 0.34 6 0 6 C0 4.02 0 2.04 0 0 Z " fill="#714786" transform="translate(544,526)"/>
<path d="M0 0 C0.33 0 0.66 0 1 0 C1 1.98 1 3.96 1 6 C0.67 6 0.34 6 0 6 C0 4.02 0 2.04 0 0 Z " fill="#6A6A6A" transform="translate(544,478)"/>
<path d="M0 0 C0.33 0 0.66 0 1 0 C1 1.65 1 3.3 1 5 C0.67 5 0.34 5 0 5 C0 3.35 0 1.7 0 0 Z " fill="#525252" transform="translate(479,640)"/>
<path d="M0 0 C0.33 0 0.66 0 1 0 C1 1.65 1 3.3 1 5 C0.67 5 0.34 5 0 5 C0 3.35 0 1.7 0 0 Z " fill="#2C3445" transform="translate(544,615)"/>
<path d="M0 0 C0.33 0 0.66 0 1 0 C1 1.65 1 3.3 1 5 C0.67 5 0.34 5 0 5 C0 3.35 0 1.7 0 0 Z " fill="#905D90" transform="translate(544,575)"/>
<path d="M0 0 C0.33 0 0.66 0 1 0 C1 1.65 1 3.3 1 5 C0.67 5 0.34 5 0 5 C0 3.35 0 1.7 0 0 Z " fill="#6E6E6E" transform="translate(479,528)"/>
<path d="M0 0 C0.33 0 0.66 0 1 0 C1 1.65 1 3.3 1 5 C0.67 5 0.34 5 0 5 C0 3.35 0 1.7 0 0 Z " fill="#595959" transform="translate(491,517)"/>
<path d="M0 0 C0.33 0 0.66 0 1 0 C1 1.65 1 3.3 1 5 C0.67 5 0.34 5 0 5 C0 3.35 0 1.7 0 0 Z " fill="#6E6E6E" transform="translate(596,510)"/>
<path d="M0 0 C0.33 0 0.66 0 1 0 C1 1.65 1 3.3 1 5 C0.67 5 0.34 5 0 5 C0 3.35 0 1.7 0 0 Z " fill="#505050" transform="translate(479,488)"/>
<path d="M0 0 C0.33 0 0.66 0 1 0 C1 1.65 1 3.3 1 5 C0.67 5 0.34 5 0 5 C0 3.35 0 1.7 0 0 Z " fill="#5D5D5D" transform="translate(544,487)"/>
<path d="M0 0 C1 4 1 4 1 4 Z " fill="#559595" transform="translate(479,688)"/>
<path d="M0 0 C1 4 1 4 1 4 Z " fill="#306545" transform="translate(479,680)"/>
<path d="M0 0 C1 4 1 4 1 4 Z " fill="#757575" transform="translate(479,664)"/>
<path d="M0 0 C1 4 1 4 1 4 Z " fill="#707070" transform="translate(491,652)"/>
<path d="M0 0 C1 4 1 4 1 4 Z " fill="#609F7F" transform="translate(544,631)"/>
<path d="M0 0 C1 4 1 4 1 4 Z " fill="#808080" transform="translate(479,616)"/>
<path d="M0 0 C1 4 1 4 1 4 Z " fill="#656565" transform="translate(596,604)"/>
<path d="M0 0 C1 4 1 4 1 4 Z " fill="#5F5F5F" transform="translate(544,599)"/>
<path d="M0 0 C1 4 1 4 1 4 Z " fill="#5F5F75" transform="translate(544,584)"/>
<path d="M0 0 C1 4 1 4 1 4 Z " fill="#3A4A4A" transform="translate(479,576)"/>
<path d="M0 0 C1 4 1 4 1 4 Z " fill="#5F5F5F" transform="translate(352,576)"/>
<path d="M0 0 C1 4 1 4 1 4 Z " fill="#6A4A6A" transform="translate(544,553)"/>
<path d="M0 0 C1 4 1 4 1 4 Z " fill="#757575" transform="translate(596,501)"/>
<path d="M0 0 C1 4 1 4 1 4 Z " fill="#808080" transform="translate(544,465)"/>
<path d="" fill="#717171" transform="translate(0,0)"/>
<path d="" fill="#636363" transform="translate(0,0)"/>
<path d="" fill="#409595" transform="translate(0,0)"/>
<path d="" fill="#808080" transform="translate(0,0)"/>
<path d="" fill="#717171" transform="translate(0,0)"/>
<path d="" fill="#636363" transform="translate(0,0)"/>
<path d="" fill="#6A6A6A" transform="translate(0,0)"/>
<path d="" fill="#808080" transform="translate(0,0)"/>
<path d="" fill="#555555" transform="translate(0,0)"/>
<path d="" fill="#808080" transform="translate(0,0)"/>
<path d="" fill="#808080" transform="translate(0,0)"/>
<path d="" fill="#717171" transform="translate(0,0)"/>
<path d="" fill="#717171" transform="translate(0,0)"/>
<path d="" fill="#555555" transform="translate(0,0)"/>
<path d="" fill="#636363" transform="translate(0,0)"/>
<path d="" fill="#5C5C5C" transform="translate(0,0)"/>
<path d="" fill="#717171" transform="translate(0,0)"/>
<path d="" fill="#717171" transform="translate(0,0)"/>
<path d="" fill="#808080" transform="translate(0,0)"/>
<path d="" fill="#555555" transform="translate(0,0)"/>
<path d="" fill="#717171" transform="translate(0,0)"/>
<path d="M0 0 C3 1 3 1 3 1 Z " fill="#808080" transform="translate(552,397)"/>
<path d="" fill="#AAA7AA" transform="translate(0,0)"/>
<path d="M0 0 C2 1 2 1 2 1 Z " fill="#6A6A6A" transform="translate(473,784)"/>
<path d="" fill="#6A6A6A" transform="translate(0,0)"/>
<path d="" fill="#2AAAAA" transform="translate(0,0)"/>
<path d="" fill="#6A6A6A" transform="translate(0,0)"/>
<path d="" fill="#00FFFF" transform="translate(0,0)"/>
<path d="" fill="#6A6A6A" transform="translate(0,0)"/>
<path d="" fill="#2AAAAA" transform="translate(0,0)"/>
<path d="" fill="#555555" transform="translate(0,0)"/>
<path d="" fill="#4A4A4A" transform="translate(0,0)"/>
<path d="" fill="#7FFF7F" transform="translate(0,0)"/>
<path d="" fill="#808080" transform="translate(0,0)"/>
<path d="" fill="#808080" transform="translate(0,0)"/>
<path d="" fill="#804080" transform="translate(0,0)"/>
<path d="" fill="#393939" transform="translate(0,0)"/>
<path d="" fill="#6A6A6A" transform="translate(0,0)"/>
<path d="" fill="#6A6A6A" transform="translate(0,0)"/>
<path d="" fill="#606060" transform="translate(0,0)"/>
<path d="" fill="#4A4A4A" transform="translate(0,0)"/>
<path d="" fill="#808080" transform="translate(0,0)"/>
<path d="" fill="#6A6A6A" transform="translate(0,0)"/>
<path d="" fill="#808080" transform="translate(0,0)"/>
<path d="" fill="#606060" transform="translate(0,0)"/>
<path d="" fill="#808080" transform="translate(0,0)"/>
<path d="" fill="#2A6A6A" transform="translate(0,0)"/>
<path d="" fill="#808080" transform="translate(0,0)"/>
<path d="" fill="#808080" transform="translate(0,0)"/>
<path d="" fill="#4A4A4A" transform="translate(0,0)"/>
<path d="" fill="#6A6A6A" transform="translate(0,0)"/>
<path d="" fill="#606060" transform="translate(0,0)"/>
<path d="" fill="#808080" transform="translate(0,0)"/>
<path d="" fill="#404040" transform="translate(0,0)"/>
<path d="" fill="#606060" transform="translate(0,0)"/>
<path d="" fill="#004080" transform="translate(0,0)"/>
<path d="" fill="#6A6A6A" transform="translate(0,0)"/>
<path d="" fill="#808080" transform="translate(0,0)"/>
<path d="" fill="#555555" transform="translate(0,0)"/>
<path d="" fill="#6A6A6A" transform="translate(0,0)"/>
<path d="" fill="#595959" transform="translate(0,0)"/>
<path d="" fill="#6A6A6A" transform="translate(0,0)"/>
<path d="" fill="#6A6A6A" transform="translate(0,0)"/>
<path d="" fill="#6A6A6A" transform="translate(0,0)"/>
<path d="M0 0 C2 1 2 1 2 1 Z " fill="#737373" transform="translate(549,403)"/>
<path d="M0 0 C2 1 2 1 2 1 Z " fill="#A4A4A4" transform="translate(562,402)"/>
<path d="" fill="#9F9F9F" transform="translate(0,0)"/>
<path d="" fill="#9E9E9E" transform="translate(0,0)"/>
<path d="" fill="#8A898A" transform="translate(0,0)"/>
<path d="" fill="#A3A3A3" transform="translate(0,0)"/>
<path d="" fill="#808080" transform="translate(0,0)"/>
<path d="M0 0 C2 1 2 1 2 1 Z " fill="#6A6A6A" transform="translate(456,224)"/>
<path d="M0 0 C2 1 2 1 2 1 Z " fill="#808080" transform="translate(446,178)"/>
<path d="" fill="#808080" transform="translate(0,0)"/>
<path d="" fill="#808080" transform="translate(0,0)"/>
<path d="" fill="#808080" transform="translate(0,0)"/>
<path d="" fill="#555555" transform="translate(0,0)"/>
<path d="" fill="#808080" transform="translate(0,0)"/>
<path d="" fill="#808080" transform="translate(0,0)"/>
<path d="" fill="#555555" transform="translate(0,0)"/>
<path d="" fill="#808080" transform="translate(0,0)"/>
<path d="" fill="#808080" transform="translate(0,0)"/>
<path d="" fill="#808080" transform="translate(0,0)"/>
<path d="" fill="#555555" transform="translate(0,0)"/>
<path d="" fill="#808080" transform="translate(0,0)"/>
<path d="" fill="#555555" transform="translate(0,0)"/>
<path d="" fill="#404040" transform="translate(0,0)"/>
<path d="" fill="#404040" transform="translate(0,0)"/>
<path d="" fill="#808080" transform="translate(0,0)"/>
<path d="" fill="#808080" transform="translate(0,0)"/>
<path d="" fill="#808080" transform="translate(0,0)"/>
<path d="" fill="#808080" transform="translate(0,0)"/>
<path d="" fill="#808080" transform="translate(0,0)"/>
<path d="" fill="#808080" transform="translate(0,0)"/>
<path d="" fill="#808080" transform="translate(0,0)"/>
<path d="" fill="#808080" transform="translate(0,0)"/>
<path d="" fill="#808080" transform="translate(0,0)"/>
<path d="" fill="#808080" transform="translate(0,0)"/>
<path d="" fill="#555555" transform="translate(0,0)"/>
<path d="" fill="#808080" transform="translate(0,0)"/>
<path d="" fill="#808080" transform="translate(0,0)"/>
<path d="" fill="#555555" transform="translate(0,0)"/>
<path d="" fill="#808080" transform="translate(0,0)"/>
<path d="" fill="#555555" transform="translate(0,0)"/>
<path d="" fill="#555555" transform="translate(0,0)"/>
<path d="" fill="#808080" transform="translate(0,0)"/>
<path d="" fill="#808080" transform="translate(0,0)"/>
<path d="" fill="#808080" transform="translate(0,0)"/>
<path d="" fill="#808080" transform="translate(0,0)"/>
<path d="" fill="#808080" transform="translate(0,0)"/>
<path d="" fill="#808080" transform="translate(0,0)"/>
<path d="" fill="#555555" transform="translate(0,0)"/>
<path d="" fill="#808080" transform="translate(0,0)"/>
<path d="" fill="#404040" transform="translate(0,0)"/>
<path d="" fill="#808080" transform="translate(0,0)"/>
<path d="" fill="#404040" transform="translate(0,0)"/>
<path d="" fill="#808080" transform="translate(0,0)"/>
<path d="" fill="#555555" transform="translate(0,0)"/>
<path d="" fill="#808080" transform="translate(0,0)"/>
<path d="" fill="#808080" transform="translate(0,0)"/>
<path d="" fill="#555555" transform="translate(0,0)"/>
<path d="" fill="#808080" transform="translate(0,0)"/>
<path d="" fill="#808080" transform="translate(0,0)"/>
<path d="" fill="#808080" transform="translate(0,0)"/>
<path d="" fill="#808080" transform="translate(0,0)"/>
<path d="" fill="#808080" transform="translate(0,0)"/>
<path d="" fill="#555555" transform="translate(0,0)"/>
<path d="" fill="#808080" transform="translate(0,0)"/>
<path d="" fill="#808080" transform="translate(0,0)"/>
<path d="" fill="#808080" transform="translate(0,0)"/>
<path d="" fill="#00FFFF" transform="translate(0,0)"/>
<path d="" fill="#808080" transform="translate(0,0)"/>
<path d="" fill="#808080" transform="translate(0,0)"/>
<path d="" fill="#800000" transform="translate(0,0)"/>
<path d="" fill="#555555" transform="translate(0,0)"/>
<path d="" fill="#808080" transform="translate(0,0)"/>
<path d="" fill="#808080" transform="translate(0,0)"/>
<path d="" fill="#808080" transform="translate(0,0)"/>
<path d="" fill="#555555" transform="translate(0,0)"/>
<path d="" fill="#FF00FF" transform="translate(0,0)"/>
<path d="" fill="#808080" transform="translate(0,0)"/>
<path d="" fill="#808080" transform="translate(0,0)"/>
<path d="" fill="#808080" transform="translate(0,0)"/>
<path d="" fill="#808080" transform="translate(0,0)"/>
<path d="" fill="#555555" transform="translate(0,0)"/>
<path d="" fill="#808080" transform="translate(0,0)"/>
<path d="" fill="#555555" transform="translate(0,0)"/>
<path d="" fill="#00FFFF" transform="translate(0,0)"/>
<path d="" fill="#808080" transform="translate(0,0)"/>
<path d="" fill="#808080" transform="translate(0,0)"/>
<path d="" fill="#555555" transform="translate(0,0)"/>
<path d="" fill="#808080" transform="translate(0,0)"/>
<path d="" fill="#808080" transform="translate(0,0)"/>
<path d="" fill="#808080" transform="translate(0,0)"/>
<path d="" fill="#555555" transform="translate(0,0)"/>
<path d="" fill="#800080" transform="translate(0,0)"/>
<path d="" fill="#808080" transform="translate(0,0)"/>
<path d="" fill="#808080" transform="translate(0,0)"/>
<path d="" fill="#555555" transform="translate(0,0)"/>
<path d="" fill="#808080" transform="translate(0,0)"/>
<path d="" fill="#808080" transform="translate(0,0)"/>
<path d="" fill="#808080" transform="translate(0,0)"/>
<path d="" fill="#808080" transform="translate(0,0)"/>
<path d="" fill="#FFFF00" transform="translate(0,0)"/>
<path d="" fill="#404040" transform="translate(0,0)"/>
<path d="" fill="#808080" transform="translate(0,0)"/>
<path d="" fill="#808080" transform="translate(0,0)"/>
<path d="" fill="#404040" transform="translate(0,0)"/>
<path d="" fill="#808080" transform="translate(0,0)"/>
<path d="" fill="#555555" transform="translate(0,0)"/>
<path d="" fill="#808080" transform="translate(0,0)"/>
<path d="" fill="#00FFFF" transform="translate(0,0)"/>
<path d="" fill="#808000" transform="translate(0,0)"/>
<path d="" fill="#FF00FF" transform="translate(0,0)"/>
<path d="" fill="#808080" transform="translate(0,0)"/>
<path d="" fill="#808080" transform="translate(0,0)"/>
<path d="" fill="#FF00FF" transform="translate(0,0)"/>
<path d="" fill="#FF00FF" transform="translate(0,0)"/>
<path d="" fill="#555555" transform="translate(0,0)"/>
<path d="" fill="#808080" transform="translate(0,0)"/>
<path d="" fill="#808080" transform="translate(0,0)"/>
<path d="" fill="#808080" transform="translate(0,0)"/>
<path d="" fill="#808080" transform="translate(0,0)"/>
<path d="" fill="#808080" transform="translate(0,0)"/>
<path d="" fill="#404040" transform="translate(0,0)"/>
<path d="" fill="#808080" transform="translate(0,0)"/>
<path d="" fill="#808080" transform="translate(0,0)"/>
<path d="" fill="#808080" transform="translate(0,0)"/>
<path d="" fill="#808080" transform="translate(0,0)"/>
<path d="" fill="#808080" transform="translate(0,0)"/>
<path d="" fill="#808080" transform="translate(0,0)"/>
<path d="" fill="#555555" transform="translate(0,0)"/>
<path d="" fill="#808080" transform="translate(0,0)"/>
<path d="" fill="#555555" transform="translate(0,0)"/>
<path d="" fill="#808080" transform="translate(0,0)"/>
<path d="" fill="#555555" transform="translate(0,0)"/>
<path d="" fill="#555555" transform="translate(0,0)"/>
<path d="" fill="#555555" transform="translate(0,0)"/>
<path d="" fill="#404040" transform="translate(0,0)"/>
<path d="" fill="#808080" transform="translate(0,0)"/>
<path d="" fill="#808080" transform="translate(0,0)"/>
<path d="" fill="#555555" transform="translate(0,0)"/>
<path d="" fill="#808080" transform="translate(0,0)"/>
<path d="" fill="#555555" transform="translate(0,0)"/>
<path d="" fill="#555555" transform="translate(0,0)"/>
<path d="" fill="#808080" transform="translate(0,0)"/>
<path d="" fill="#808080" transform="translate(0,0)"/>
<path d="" fill="#808080" transform="translate(0,0)"/>
<path d="" fill="#808080" transform="translate(0,0)"/>
<path d="" fill="#555555" transform="translate(0,0)"/>
<path d="" fill="#808080" transform="translate(0,0)"/>
<path d="" fill="#808080" transform="translate(0,0)"/>
<path d="" fill="#555555" transform="translate(0,0)"/>
<path d="" fill="#808080" transform="translate(0,0)"/>
<path d="" fill="#808080" transform="translate(0,0)"/>
<path d="" fill="#555555" transform="translate(0,0)"/>
<path d="" fill="#555555" transform="translate(0,0)"/>
<path d="" fill="#808080" transform="translate(0,0)"/>
<path d="" fill="#555555" transform="translate(0,0)"/>
<path d="" fill="#404040" transform="translate(0,0)"/>
<path d="" fill="#555555" transform="translate(0,0)"/>
<path d="" fill="#808080" transform="translate(0,0)"/>
<path d="" fill="#404040" transform="translate(0,0)"/>
<path d="" fill="#808080" transform="translate(0,0)"/>
<path d="" fill="#555555" transform="translate(0,0)"/>
<path d="" fill="#555555" transform="translate(0,0)"/>
<path d="" fill="#808080" transform="translate(0,0)"/>
<path d="" fill="#808080" transform="translate(0,0)"/>
<path d="" fill="#808080" transform="translate(0,0)"/>
<path d="" fill="#555555" transform="translate(0,0)"/>
<path d="" fill="#808080" transform="translate(0,0)"/>
<path d="" fill="#8B8787" transform="translate(0,0)"/>
<path d="" fill="#767676" transform="translate(0,0)"/>
<path d="" fill="#AAAAAA" transform="translate(0,0)"/>
<path d="" fill="#898989" transform="translate(0,0)"/>
<path d="" fill="#555555" transform="translate(0,0)"/>
<path d="" fill="#808080" transform="translate(0,0)"/>
<path d="" fill="#A8A8A8" transform="translate(0,0)"/>
<path d="" fill="#808080" transform="translate(0,0)"/>
<path d="" fill="#808080" transform="translate(0,0)"/>
<path d="" fill="#808080" transform="translate(0,0)"/>
<path d="" fill="#B9B3B6" transform="translate(0,0)"/>
<path d="" fill="#808080" transform="translate(0,0)"/>
<path d="" fill="#808080" transform="translate(0,0)"/>
<path d="" fill="#D6D9D6" transform="translate(0,0)"/>
<path d="" fill="#979797" transform="translate(0,0)"/>
<path d="" fill="#C6C6C8" transform="translate(0,0)"/>
<path d="" fill="#CBCECE" transform="translate(0,0)"/>
<path d="" fill="#AAAAAA" transform="translate(0,0)"/>
<path d="" fill="#808080" transform="translate(0,0)"/>
<path d="" fill="#868686" transform="translate(0,0)"/>
<path d="" fill="#929292" transform="translate(0,0)"/>
<path d="" fill="#89898D" transform="translate(0,0)"/>
<path d="" fill="#B8B8B4" transform="translate(0,0)"/>
<path d="" fill="#808080" transform="translate(0,0)"/>
<path d="" fill="#9EA299" transform="translate(0,0)"/>
<path d="" fill="#808080" transform="translate(0,0)"/>
<path d="" fill="#555555" transform="translate(0,0)"/>
<path d="" fill="#BEBEB9" transform="translate(0,0)"/>
<path d="" fill="#808080" transform="translate(0,0)"/>
<path d="" fill="#808080" transform="translate(0,0)"/>
<path d="" fill="#555555" transform="translate(0,0)"/>
<path d="" fill="#BABDBD" transform="translate(0,0)"/>
<path d="" fill="#88888E" transform="translate(0,0)"/>
<path d="" fill="#65656A" transform="translate(0,0)"/>
<path d="" fill="#808080" transform="translate(0,0)"/>
<path d="" fill="#808080" transform="translate(0,0)"/>
<path d="" fill="#555555" transform="translate(0,0)"/>
<path d="" fill="#555555" transform="translate(0,0)"/>
<path d="" fill="#808080" transform="translate(0,0)"/>
<path d="" fill="#555555" transform="translate(0,0)"/>
<path d="" fill="#555555" transform="translate(0,0)"/>
<path d="" fill="#808080" transform="translate(0,0)"/>
<path d="" fill="#808080" transform="translate(0,0)"/>
<path d="" fill="#808080" transform="translate(0,0)"/>
<path d="" fill="#555555" transform="translate(0,0)"/>
<path d="" fill="#808080" transform="translate(0,0)"/>
<path d="" fill="#808080" transform="translate(0,0)"/>
<path d="" fill="#808080" transform="translate(0,0)"/>
<path d="" fill="#808080" transform="translate(0,0)"/>
<path d="" fill="#808080" transform="translate(0,0)"/>
<path d="" fill="#808080" transform="translate(0,0)"/>
<path d="" fill="#555555" transform="translate(0,0)"/>
<path d="" fill="#808080" transform="translate(0,0)"/>
</svg>
